NotoSansOldItalic-Regular.ufo
<glyph name="u10301" format="2">
  <advance width="627"/>
  <unicode hex="10301"/>
  <outline>
    <contour>
      <point x="173" y="-16" type="line"/>
      <point x="433" y="32"/>
      <point x="557" y="112"/>
      <point x="557" y="170" type="curve" smooth="yes"/>
      <point x="557" y="227"/>
      <point x="502" y="286"/>
      <point x="340" y="365" type="curve"/>
      <point x="469" y="424"/>
      <point x="543" y="470"/>
      <point x="543" y="524" type="curve" smooth="yes"/>
      <point x="543" y="597"/>
      <point x="390" y="683"/>
      <point x="170" y="728" type="curve"/>
      <point x="117" y="707" type="line"/>
      <point x="117" y="8" type="line"/>
    </contour>
    <contour>
      <point x="207" y="75" type="curve"/>
      <point x="207" y="350" type="line"/>
      <point x="397" y="265"/>
      <point x="452" y="210"/>
      <point x="452" y="183" type="curve" smooth="yes"/>
      <point x="452" y="157"/>
      <point x="357" y="110"/>
    </contour>
    <contour>
      <point x="207" y="381" type="curve"/>
      <point x="207" y="641" type="line"/>
      <point x="326" y="611"/>
      <point x="441" y="563"/>
      <point x="441" y="524" type="curve" smooth="yes"/>
      <point x="441" y="485"/>
      <point x="301" y="421"/>
    </contour>
  </outline>
</glyph>
<glyph name="u10305" format="2">
  <advance width="568"/>
  <unicode hex="10305"/>
  <outline>
    <contour>
      <point x="207" y="0" type="line"/>
      <point x="207" y="295" type="line"/>
      <point x="485" y="175" type="line"/>
      <point x="521" y="254" type="line"/>
      <point x="207" y="385" type="line"/>
      <point x="207" y="612" type="line"/>
      <point x="471" y="496" type="line"/>
      <point x="508" y="575" type="line"/>
      <point x="153" y="725" type="line"/>
      <point x="117" y="713" type="line"/>
      <point x="117" y="0" type="line"/>
    </contour>
  </outline>
</glyph>
<glyph name="u10306" format="2">
  <advance width="585"/>
  <unicode hex="10306"/>
  <outline>
    <contour>
      <point x="339" y="0" type="line"/>
      <point x="339" y="140" type="line"/>
      <point x="510" y="80" type="line"/>
      <point x="538" y="156" type="line"/>
      <point x="339" y="226" type="line"/>
      <point x="339" y="468" type="line"/>
      <point x="510" y="405" type="line"/>
      <point x="538" y="481" type="line"/>
      <point x="339" y="551" type="line"/>
      <point x="339" y="715" type="line"/>
      <point x="249" y="715" type="line"/>
      <point x="249" y="583" type="line"/>
      <point x="75" y="645" type="line"/>
      <point x="47" y="569" type="line"/>
      <point x="249" y="499" type="line"/>
      <point x="249" y="257" type="line"/>
      <point x="75" y="320" type="line"/>
      <point x="47" y="244" type="line"/>
      <point x="249" y="172" type="line"/>
      <point x="249" y="0" type="line"/>
    </contour>
  </outline>
</glyph>
<glyph name="u10307" format="2">
  <advance width="800"/>
  <unicode hex="10307"/>
  <outline>
    <contour>
      <point x="117" y="40" type="line"/>
      <point x="683" y="40" type="line"/>
      <point x="683" y="674" type="line"/>
      <point x="117" y="674" type="line"/>
    </contour>
    <contour>
      <point x="204" y="119" type="line"/>
      <point x="204" y="318" type="line"/>
      <point x="596" y="318" type="line"/>
      <point x="596" y="119" type="line"/>
    </contour>
    <contour>
      <point x="204" y="397" type="line"/>
      <point x="204" y="595" type="line"/>
      <point x="596" y="595" type="line"/>
      <point x="596" y="397" type="line"/>
    </contour>
  </outline>
</glyph>
<glyph name="u1030B" format="2">
  <advance width="567"/>
  <unicode hex="1030B"/>
  <outline>
    <contour>
      <point x="158" y="-10" type="line"/>
      <point x="530" y="146" type="line"/>
      <point x="489" y="226" type="line"/>
      <point x="207" y="100" type="line"/>
      <point x="207" y="714" type="line"/>
      <point x="117" y="714" type="line"/>
      <point x="117" y="7" type="line"/>
    </contour>
  </outline>
</glyph>
<glyph name="u1030C" format="2">
  <advance width="864"/>
  <unicode hex="1030C"/>
  <outline>
    <contour>
      <point x="146" y="-11" type="line"/>
      <point x="271" y="567" type="line"/>
      <point x="424" y="240" type="line"/>
      <point x="497" y="240" type="line"/>
      <point x="641" y="574" type="line"/>
      <point x="741" y="313" type="line"/>
      <point x="824" y="340" type="line"/>
      <point x="683" y="694" type="line"/>
      <point x="600" y="694" type="line"/>
      <point x="458" y="357" type="line"/>
      <point x="298" y="694" type="line"/>
      <point x="208" y="694" type="line"/>
      <point x="58" y="8" type="line"/>
    </contour>
  </outline>
</glyph>
<glyph name="u1030D" format="2">
  <advance width="728"/>
  <unicode hex="1030D"/>
  <outline>
    <contour>
      <point x="147" y="-10" type="line"/>
      <point x="264" y="566" type="line"/>
      <point x="451" y="240" type="line"/>
      <point x="528" y="240" type="line"/>
      <point x="688" y="675" type="line"/>
      <point x="602" y="703" type="line"/>
      <point x="477" y="355" type="line"/>
      <point x="283" y="694" type="line"/>
      <point x="198" y="694" type="line"/>
      <point x="58" y="10" type="line"/>
    </contour>
  </outline>
</glyph>
<glyph name="u1030E" format="2">
  <advance width="860"/>
  <unicode hex="1030E"/>
  <outline>
    <contour>
      <point x="117" y="40" type="line"/>
      <point x="743" y="40" type="line"/>
      <point x="743" y="674" type="line"/>
      <point x="117" y="674" type="line"/>
    </contour>
    <contour>
      <point x="201" y="117" type="line"/>
      <point x="201" y="319" type="line"/>
      <point x="388" y="319" type="line"/>
      <point x="388" y="117" type="line"/>
    </contour>
    <contour>
      <point x="472" y="117" type="line"/>
      <point x="472" y="319" type="line"/>
      <point x="659" y="319" type="line"/>
      <point x="659" y="117" type="line"/>
    </contour>
    <contour>
      <point x="201" y="396" type="line"/>
      <point x="201" y="597" type="line"/>
      <point x="388" y="597" type="line"/>
      <point x="388" y="396" type="line"/>
    </contour>
    <contour>
      <point x="472" y="396" type="line"/>
      <point x="472" y="597" type="line"/>
      <point x="659" y="597" type="line"/>
      <point x="659" y="396" type="line"/>
    </contour>
  </outline>
</glyph>
<glyph name="u1030F" format="2">
  <advance width="807"/>
  <unicode hex="1030F"/>
  <outline>
    <contour>
      <point x="404" y="27" type="curve" smooth="yes"/>
      <point x="575" y="27"/>
      <point x="737" y="159"/>
      <point x="737" y="359" type="curve" smooth="yes"/>
      <point x="737" y="559"/>
      <point x="575" y="689"/>
      <point x="405" y="689" type="curve" smooth="yes"/>
      <point x="225" y="689"/>
      <point x="70" y="554"/>
      <point x="70" y="360" type="curve" smooth="yes"/>
      <point x="70" y="160"/>
      <point x="225" y="27"/>
    </contour>
    <contour>
      <point x="404" y="108" type="curve" smooth="yes"/>
      <point x="270" y="108"/>
      <point x="161" y="211"/>
      <point x="161" y="359" type="curve" smooth="yes"/>
      <point x="161" y="506"/>
      <point x="270" y="609"/>
      <point x="405" y="609" type="curve" smooth="yes"/>
      <point x="539" y="609"/>
      <point x="645" y="506"/>
      <point x="645" y="359" type="curve" smooth="yes"/>
      <point x="645" y="211"/>
      <point x="539" y="108"/>
    </contour>
  </outline>
</glyph>
<glyph name="u10312" format="2">
  <advance width="708"/>
  <unicode hex="10312"/>
  <outline>
    <contour>
      <point x="308" y="-50" type="line"/>
      <point x="398" y="-50" type="line"/>
      <point x="398" y="142" type="line"/>
      <point x="528" y="160"/>
      <point x="647" y="260"/>
      <point x="647" y="420" type="curve" smooth="yes"/>
      <point x="647" y="597"/>
      <point x="500" y="695"/>
      <point x="355" y="695" type="curve" smooth="yes"/>
      <point x="201" y="695"/>
      <point x="61" y="589"/>
      <point x="61" y="420" type="curve" smooth="yes"/>
      <point x="61" y="260"/>
      <point x="181" y="161"/>
      <point x="308" y="142" type="curve"/>
    </contour>
    <contour>
      <point x="354" y="212" type="curve" smooth="yes"/>
      <point x="245" y="212"/>
      <point x="152" y="293"/>
      <point x="152" y="420" type="curve" smooth="yes"/>
      <point x="152" y="547"/>
      <point x="244" y="621"/>
      <point x="353" y="621" type="curve" smooth="yes"/>
      <point x="462" y="621"/>
      <point x="556" y="547"/>
      <point x="556" y="420" type="curve" smooth="yes"/>
      <point x="556" y="293"/>
      <point x="462" y="212"/>
    </contour>
  </outline>
</glyph>
<glyph name="u10313" format="2">
  <advance width="595"/>
  <unicode hex="10313"/>
  <outline>
    <contour>
      <point x="207" y="0" type="line"/>
      <point x="207" y="142" type="line"/>
      <point x="463" y="241"/>
      <point x="543" y="333"/>
      <point x="543" y="430" type="curve" smooth="yes"/>
      <point x="543" y="518"/>
      <point x="429" y="629"/>
      <point x="170" y="723" type="curve"/>
      <point x="117" y="704" type="line"/>
      <point x="117" y="0" type="line"/>
    </contour>
    <contour>
      <point x="207" y="226" type="curve"/>
      <point x="207" y="624" type="line"/>
      <point x="372" y="553"/>
      <point x="445" y="481"/>
      <point x="445" y="423" type="curve" smooth="yes"/>
      <point x="445" y="369"/>
      <point x="389" y="303"/>
    </contour>
  </outline>
</glyph>
<glyph name="u10314" format="2">
  <advance width="510"/>
  <unicode hex="10314"/>
  <outline>
    <contour>
      <point x="113" y="-35" type="line"/>
      <point x="348" y="48"/>
      <point x="435" y="121"/>
      <point x="435" y="192" type="curve" smooth="yes"/>
      <point x="435" y="319"/>
      <point x="173" y="439"/>
      <point x="173" y="517" type="curve" smooth="yes"/>
      <point x="173" y="554"/>
      <point x="281" y="614"/>
      <point x="428" y="661" type="curve"/>
      <point x="396" y="738" type="line"/>
      <point x="201" y="678"/>
      <point x="74" y="596"/>
      <point x="74" y="522" type="curve" smooth="yes"/>
      <point x="74" y="394"/>
      <point x="341" y="282"/>
      <point x="341" y="196" type="curve" smooth="yes"/>
      <point x="341" y="165"/>
      <point x="251" y="97"/>
      <point x="81" y="43" type="curve"/>
    </contour>
  </outline>
</glyph>
<glyph name="u10316" format="2">
  <advance width="676"/>
  <unicode hex="10316"/>
  <outline>
    <contour>
      <point x="290" y="39" type="line"/>
      <point x="376" y="39" type="line"/>
      <point x="663" y="659" type="line"/>
      <point x="578" y="689" type="line"/>
      <point x="333" y="145" type="line"/>
      <point x="98" y="689" type="line"/>
      <point x="13" y="659" type="line"/>
    </contour>
  </outline>
</glyph>
<glyph name="u1031B" format="2">
  <advance width="605"/>
  <unicode hex="1031B"/>
  <outline>
    <contour>
      <point x="207" y="0" type="line"/>
      <point x="207" y="276" type="line"/>
      <point x="485" y="350"/>
      <point x="563" y="434"/>
      <point x="563" y="500" type="curve" smooth="yes"/>
      <point x="563" y="570"/>
      <point x="463" y="650"/>
      <point x="170" y="723" type="curve"/>
      <point x="117" y="704" type="line"/>
      <point x="117" y="0" type="line"/>
    </contour>
    <contour>
      <point x="207" y="358" type="curve"/>
      <point x="207" y="633" type="line"/>
      <point x="402" y="579"/>
      <point x="460" y="528"/>
      <point x="460" y="494" type="curve" smooth="yes"/>
      <point x="460" y="463"/>
      <point x="411" y="415"/>
    </contour>
  </outline>
</glyph>
<glyph name="u1031D" format="2">
  <advance width="492"/>
  <unicode hex="1031D"/>
  <outline>
    <contour>
      <point x="375" y="0" type="line"/>
      <point x="375" y="714" type="line"/>
      <point x="285" y="714" type="line"/>
      <point x="285" y="395" type="line"/>
      <point x="45" y="395" type="line"/>
      <point x="45" y="316" type="line"/>
      <point x="285" y="316" type="line"/>
      <point x="285" y="0" type="line"/>
    </contour>
  </outline>
</glyph>
<glyph name="u1031E" format="2">
  <advance width="676"/>
  <unicode hex="1031E"/>
  <outline>
    <contour>
      <point x="290" y="49" type="line"/>
      <point x="376" y="49" type="line"/>
      <point x="663" y="669" type="line"/>
      <point x="578" y="699" type="line"/>
      <point x="333" y="155" type="line"/>
      <point x="98" y="699" type="line"/>
      <point x="13" y="669" type="line"/>
    </contour>
    <contour>
      <point x="337" y="589" type="curve" smooth="yes"/>
      <point x="364" y="589"/>
      <point x="388" y="607"/>
      <point x="388" y="645" type="curve" smooth="yes"/>
      <point x="388" y="684"/>
      <point x="364" y="701"/>
      <point x="337" y="701" type="curve" smooth="yes"/>
      <point x="308" y="701"/>
      <point x="285" y="684"/>
      <point x="285" y="645" type="curve" smooth="yes"/>
      <point x="285" y="607"/>
      <point x="308" y="589"/>
    </contour>
  </outline>
</glyph>
<glyph name="u1031F" format="2">
  <advance width="638"/>
  <unicode hex="1031F"/>
  <outline>
    <contour>
      <point x="274" y="0" type="line"/>
      <point x="364" y="0" type="line"/>
      <point x="364" y="259" type="line"/>
      <point x="542" y="82" type="line"/>
      <point x="598" y="138" type="line"/>
      <point x="375" y="360" type="line"/>
      <point x="598" y="583" type="line"/>
      <point x="542" y="639" type="line"/>
      <point x="364" y="461" type="line"/>
      <point x="364" y="714" type="line"/>
      <point x="274" y="714" type="line"/>
      <point x="274" y="461" type="line"/>
      <point x="96" y="639" type="line"/>
      <point x="40" y="583" type="line"/>
      <point x="263" y="360" type="line"/>
      <point x="40" y="138" type="line"/>
      <point x="96" y="82" type="line"/>
      <point x="274" y="259" type="line"/>
    </contour>
  </outline>
</glyph>
<glyph name="u10321" format="2">
  <advance width="676"/>
  <unicode hex="10321"/>
  <outline>
    <contour>
      <point x="98" y="29" type="line"/>
      <point x="343" y="573" type="line"/>
      <point x="578" y="29" type="line"/>
      <point x="663" y="59" type="line"/>
      <point x="386" y="679" type="line"/>
      <point x="300" y="679" type="line"/>
      <point x="13" y="59" type="line"/>
    </contour>
  </outline>
</glyph>
<glyph name="u10323" format="2">
  <advance width="604"/>
  <unicode hex="10323"/>
  <outline>
    <contour>
      <point x="257" y="0" type="line"/>
      <point x="347" y="0" type="line"/>
      <point x="347" y="611" type="line"/>
      <point x="537" y="473" type="line"/>
      <point x="581" y="537" type="line"/>
      <point x="302" y="739" type="line"/>
      <point x="23" y="537" type="line"/>
      <point x="67" y="473" type="line"/>
      <point x="257" y="611" type="line"/>
    </contour>
  </outline>
</glyph>
<glyph name="u1032D" format="2">
  <advance width="570"/>
  <unicode hex="1032D"/>
  <outline>
    <contour>
      <point x="507" y="37" type="line"/>
      <point x="125" y="370" type="line"/>
      <point x="511" y="677" type="line"/>
      <point x="457" y="748" type="line"/>
      <point x="38" y="410" type="line"/>
      <point x="38" y="333" type="line"/>
      <point x="457" y="-37" type="line"/>
    </contour>
  </outline>
</glyph>
<glyph name="u1032F" format="2">
  <advance width="598"/>
  <unicode hex="1032F"/>
  <outline>
    <contour>
      <point x="323" y="246" type="curve"/>
      <point x="440" y="273"/>
      <point x="510" y="316"/>
      <point x="510" y="352" type="curve" smooth="yes"/>
      <point x="510" y="389"/>
      <point x="440" y="435"/>
      <point x="323" y="462" type="curve"/>
      <point x="471" y="502"/>
      <point x="524" y="542"/>
      <point x="524" y="581" type="curve" smooth="yes"/>
      <point x="524" y="624"/>
      <point x="407" y="695"/>
      <point x="168" y="728" type="curve"/>
      <point x="117" y="707" type="line"/>
      <point x="117" y="8" type="line"/>
      <point x="171" y="-16" type="line"/>
      <point x="411" y="17"/>
      <point x="524" y="76"/>
      <point x="524" y="119" type="curve" smooth="yes"/>
      <point x="524" y="158"/>
      <point x="471" y="210"/>
    </contour>
    <contour>
      <point x="415" y="575" type="curve" smooth="yes"/>
      <point x="415" y="557"/>
      <point x="369" y="531"/>
      <point x="203" y="479" type="curve"/>
      <point x="203" y="645" type="line"/>
      <point x="339" y="621"/>
      <point x="415" y="593"/>
    </contour>
    <contour>
      <point x="405" y="352" type="curve" smooth="yes"/>
      <point x="405" y="327"/>
      <point x="289" y="285"/>
      <point x="203" y="264" type="curve"/>
      <point x="203" y="441" type="line"/>
      <point x="289" y="420"/>
      <point x="405" y="378"/>
    </contour>
    <contour>
      <point x="203" y="61" type="curve"/>
      <point x="203" y="228" type="line"/>
      <point x="369" y="182"/>
      <point x="415" y="148"/>
      <point x="415" y="130" type="curve" smooth="yes"/>
      <point x="415" y="112"/>
      <point x="337" y="85"/>
    </contour>
  </outline>
</glyph>
<glyph name="u10300_r" format="2">
  <advance width="718"/>
  <outline>
    <contour>
      <point x="116" y="-7" type="line"/>
      <point x="154" y="172"/>
      <point x="186" y="291"/>
      <point x="224" y="362" type="curve"/>
      <point x="521" y="0" type="line"/>
      <point x="601" y="0" type="line"/>
      <point x="601" y="703" type="line"/>
      <point x="552" y="718" type="line"/>
      <point x="169" y="527"/>
      <point x="119" y="430"/>
      <point x="27" y="7" type="curve"/>
    </contour>
    <contour>
      <point x="512" y="142" type="line"/>
      <point x="278" y="437" type="line"/>
      <point x="337" y="503"/>
      <point x="413" y="551"/>
      <point x="512" y="608" type="curve"/>
    </contour>
  </outline>
</glyph>
<glyph name="u10302_r" format="2">
  <advance width="525"/>
  <outline>
    <contour>
      <point x="76" y="-22" type="line"/>
      <point x="310" y="68"/>
      <point x="466" y="239"/>
      <point x="466" y="365" type="curve" smooth="yes"/>
      <point x="466" y="486"/>
      <point x="330" y="649"/>
      <point x="80" y="732" type="curve"/>
      <point x="40" y="655" type="line"/>
      <point x="278" y="569"/>
      <point x="368" y="430"/>
      <point x="368" y="362" type="curve" smooth="yes"/>
      <point x="368" y="287"/>
      <point x="262" y="143"/>
      <point x="38" y="53" type="curve"/>
    </contour>
  </outline>
</glyph>
<glyph name="u1030A_r" format="2">
  <advance width="651"/>
  <outline>
    <contour>
      <point x="444" y="0" type="line"/>
      <point x="534" y="0" type="line"/>
      <point x="534" y="714" type="line"/>
      <point x="444" y="714" type="line"/>
      <point x="444" y="386" type="line"/>
      <point x="106" y="675" type="line"/>
      <point x="48" y="609" type="line"/>
      <point x="327" y="378" type="line"/>
      <point x="52" y="115" type="line"/>
      <point x="118" y="50" type="line"/>
      <point x="444" y="365" type="line"/>
    </contour>
  </outline>
</glyph>
<glyph name="u10310_r" format="2">
  <advance width="660"/>
  <outline>
    <contour>
      <point x="453" y="0" type="line"/>
      <point x="543" y="0" type="line"/>
      <point x="543" y="684" type="line"/>
      <point x="78" y="684" type="line"/>
      <point x="78" y="365" type="line"/>
      <point x="168" y="365" type="line"/>
      <point x="168" y="604" type="line"/>
      <point x="453" y="604" type="line"/>
    </contour>
  </outline>
</glyph>
<glyph name="u10313_r" format="2">
  <advance width="595"/>
  <outline>
    <contour>
      <point x="388" y="0" type="line"/>
      <point x="478" y="0" type="line"/>
      <point x="478" y="704" type="line"/>
      <point x="426" y="723" type="line"/>
      <point x="181" y="636"/>
      <point x="52" y="541"/>
      <point x="52" y="422" type="curve" smooth="yes"/>
      <point x="52" y="338"/>
      <point x="155" y="234"/>
      <point x="388" y="143" type="curve"/>
    </contour>
    <contour>
      <point x="388" y="228" type="line"/>
      <point x="223" y="299"/>
      <point x="150" y="371"/>
      <point x="150" y="429" type="curve" smooth="yes"/>
      <point x="150" y="483"/>
      <point x="206" y="549"/>
      <point x="388" y="626" type="curve"/>
    </contour>
  </outline>
</glyph>
<glyph name="u1031C_r" format="2">
  <advance width="615"/>
  <outline>
    <contour>
      <point x="408" y="714" type="line"/>
      <point x="408" y="438" type="line"/>
      <point x="130" y="364"/>
      <point x="52" y="280"/>
      <point x="52" y="214" type="curve" smooth="yes"/>
      <point x="52" y="144"/>
      <point x="152" y="64"/>
      <point x="445" y="-9" type="curve"/>
      <point x="498" y="10" type="line"/>
      <point x="498" y="714" type="line"/>
    </contour>
    <contour>
      <point x="408" y="356" type="curve"/>
      <point x="408" y="81" type="line"/>
      <point x="213" y="135"/>
      <point x="155" y="186"/>
      <point x="155" y="220" type="curve" smooth="yes"/>
      <point x="155" y="251"/>
      <point x="204" y="299"/>
    </contour>
  </outline>
</glyph>
